<svg width="105" height="57" viewBox="0 0 105 57" fill="none" xmlns="http://www.w3.org/2000/svg">
<mask id="mask0_1_37" style="mask-type:alpha" maskUnits="userSpaceOnUse" x="58" y="0" width="4" height="4">
<path fill-rule="evenodd" clip-rule="evenodd" d="M58.8015 0H61.7709V3.84582H58.8015V0Z" fill="white"/>
</mask>
<g mask="url(#mask0_1_37)">
<path fill-rule="evenodd" clip-rule="evenodd" d="M60.3617 3.7931C61.1907 3.5511 61.8217 2.4881 61.7677 1.4281C61.7127 0.367099 61.0167 -0.228901 60.2097 0.0820993C59.4017 0.394099 58.7707 1.4311 58.8027 2.4231C58.8337 3.4151 59.5317 4.0361 60.3617 3.7931Z" fill="#5260AB"/>
</g>
<path fill-rule="evenodd" clip-rule="evenodd" d="M56.2505 4.8625C57.0905 4.6815 57.7445 3.7245 57.7165 2.7425C57.6875 1.7595 57.0005 1.1745 56.1765 1.4095C55.3525 1.6455 54.6895 2.5615 54.7035 3.4905C54.7165 4.4195 55.4105 5.0445 56.2505 4.8625Z" fill="#5260AB"/>
<path fill-rule="evenodd" clip-rule="evenodd" d="M64.6963 7.285C65.5453 7.067 66.1833 5.983 66.1133 4.868C66.0423 3.752 65.3113 3.085 64.4863 3.376C63.6623 3.666 63.0343 4.74 63.0803 5.784C63.1273 6.829 63.8473 7.504 64.6963 7.285Z" fill="#5260AB"/>
<path fill-rule="evenodd" clip-rule="evenodd" d="M60.516 8.292C61.365 8.113 62.02 7.124 61.978 6.089C61.934 5.055 61.225 4.419 60.394 4.658C59.564 4.897 58.911 5.868 58.936 6.841C58.961 7.815 59.668 8.471 60.516 8.292Z" fill="#5260AB"/>
<path fill-rule="evenodd" clip-rule="evenodd" d="M56.3251 9.0818C57.1771 8.9498 57.8501 8.0478 57.8261 7.0808C57.8031 6.1148 57.1061 5.4918 56.2661 5.6708C55.4261 5.8498 54.7501 6.7208 54.7611 7.6408C54.7721 8.5618 55.4731 9.2158 56.3251 9.0818Z" fill="#5260AB"/>
<path fill-rule="evenodd" clip-rule="evenodd" d="M52.1059 9.6241C52.9649 9.5441 53.6519 8.7201 53.6429 7.8061C53.6339 6.8921 52.9379 6.2611 52.0869 6.3711C51.2339 6.4811 50.5399 7.2621 50.5419 8.1481C50.5449 9.0331 51.2469 9.7061 52.1059 9.6241Z" fill="#5260AB"/>
<path fill-rule="evenodd" clip-rule="evenodd" d="M77.9548 9.17C78.8598 8.954 79.4978 7.686 79.3488 6.329C79.2828 5.716 79.0698 5.196 78.7768 4.845H78.7758C78.5778 4.607 78.3428 4.447 78.0898 4.381C77.8948 4.329 77.6878 4.335 77.4798 4.404C76.6078 4.703 76.0128 5.987 76.1268 7.261C76.2418 8.534 77.0498 9.385 77.9548 9.17Z" fill="#5260AB"/>
<path fill-rule="evenodd" clip-rule="evenodd" d="M73.5392 10.2235C74.4262 10.0255 75.0772 8.8475 74.9662 7.5865C74.8562 6.3245 74.0512 5.5205 73.1912 5.7985C72.3302 6.0755 71.7122 7.2635 71.7942 8.4455C71.8772 9.6265 72.6502 10.4205 73.5392 10.2235Z" fill="#5260AB"/>
<path fill-rule="evenodd" clip-rule="evenodd" d="M69.1921 11.1775C70.0681 11.0015 70.7281 9.9115 70.6501 8.7415C70.5711 7.5695 69.8021 6.8215 68.9501 7.0705C68.0971 7.3195 67.4591 8.4125 67.5151 9.5095C67.5711 10.6075 68.3171 11.3535 69.1921 11.1775Z" fill="#5260AB"/>
<path fill-rule="evenodd" clip-rule="evenodd" d="M64.7394 8.1936C63.8904 8.4096 63.2344 9.4086 63.2694 10.4316C63.3044 11.4536 64.0284 12.1646 64.8964 12.0136C65.7644 11.8616 66.4334 10.8576 66.3814 9.7706C66.3284 8.6826 65.5884 7.9776 64.7394 8.1936Z" fill="#5260AB"/>
<path fill-rule="evenodd" clip-rule="evenodd" d="M60.5413 9.1393C59.6913 9.3143 59.0203 10.2273 59.0393 11.1883C59.0583 12.1483 59.7703 12.8353 60.6323 12.7123C61.4953 12.5893 62.1743 11.6643 62.1413 10.6503C62.1083 9.6353 61.3903 8.9633 60.5413 9.1393Z" fill="#5260AB"/>
<path fill-rule="evenodd" clip-rule="evenodd" d="M56.3816 13.2573C57.2436 13.1673 57.9296 12.3123 57.9126 11.3593C57.8956 10.4053 57.1896 9.7493 56.3376 9.8803C55.4846 10.0113 54.7986 10.8433 54.8066 11.7573C54.8146 12.6703 55.5196 13.3483 56.3816 13.2573Z" fill="#5260AB"/>
<path fill-rule="evenodd" clip-rule="evenodd" d="M52.1244 13.6287C52.9874 13.5747 53.6834 12.7827 53.6764 11.8747C53.6694 10.9647 52.9684 10.3087 52.1094 10.3877C51.2494 10.4667 50.5514 11.2297 50.5534 12.1147C50.5554 12.9977 51.2594 13.6837 52.1244 13.6287Z" fill="#5260AB"/>
<path fill-rule="evenodd" clip-rule="evenodd" d="M47.8412 13.8088C48.7122 13.7938 49.4162 13.0528 49.4142 12.1718C49.4132 11.2898 48.7102 10.6128 47.8402 10.6358C46.9712 10.6578 46.2612 11.3638 46.2612 12.2398C46.2612 13.1138 46.9712 13.8238 47.8412 13.8088Z" fill="#5260AB"/>
<path fill-rule="evenodd" clip-rule="evenodd" d="M82.9975 14.2373C83.9495 14.0983 84.6505 12.8333 84.5225 11.4053C84.3935 9.9783 83.5075 9.0003 82.5815 9.2273C81.6545 9.4533 81.0135 10.7283 81.1155 12.0683C81.2175 13.4093 82.0455 14.3763 82.9975 14.2373Z" fill="#5260AB"/>
<path fill-rule="evenodd" clip-rule="evenodd" d="M78.048 10.2788C77.141 10.4918 76.489 11.6748 76.565 12.9208C76.643 14.1668 77.436 15.0638 78.365 14.9358C79.292 14.8058 79.991 13.6298 79.892 12.3018C79.793 10.9748 78.954 10.0658 78.048 10.2788Z" fill="#5260AB"/>
<path fill-rule="evenodd" clip-rule="evenodd" d="M73.6075 11.2534C72.7175 11.4474 72.0555 12.5444 72.1105 13.7004C72.1655 14.8584 72.9305 15.6964 73.8395 15.5784C74.7465 15.4604 75.4435 14.3694 75.3705 13.1364C75.2965 11.9024 74.4965 11.0594 73.6075 11.2534Z" fill="#5260AB"/>
<path fill-rule="evenodd" clip-rule="evenodd" d="M69.2396 12.1342C68.3626 12.3072 67.6926 13.3192 67.7296 14.3962C67.7676 15.4742 68.5096 16.2612 69.4006 16.1562C70.2936 16.0512 70.9886 15.0412 70.9366 13.8952C70.8836 12.7492 70.1166 11.9602 69.2396 12.1342Z" fill="#5260AB"/>
<path fill-rule="evenodd" clip-rule="evenodd" d="M64.9273 12.9048C64.0593 13.0538 63.3813 13.9858 63.4043 14.9948C63.4273 16.0028 64.1513 16.7488 65.0323 16.6598C65.9123 16.5708 66.6073 15.6328 66.5723 14.5658C66.5373 13.4978 65.7953 12.7558 64.9273 12.9048Z" fill="#5260AB"/>
<path fill-rule="evenodd" clip-rule="evenodd" d="M60.6505 13.549C59.7875 13.669 59.1015 14.53 59.1135 15.482C59.1265 16.434 59.8395 17.15 60.7115 17.078C61.5835 17.006 62.2785 16.136 62.2575 15.136C62.2355 14.136 61.5135 13.428 60.6505 13.549Z" fill="#5260AB"/>
<path fill-rule="evenodd" clip-rule="evenodd" d="M56.3903 14.0498C55.5283 14.1378 54.8333 14.9368 54.8393 15.8458C54.8443 16.7558 55.5513 17.4548 56.4203 17.4018C57.2883 17.3488 57.9853 16.5368 57.9733 15.5918C57.9623 14.6458 57.2523 13.9608 56.3903 14.0498Z" fill="#5260AB"/>
<path fill-rule="evenodd" clip-rule="evenodd" d="M52.1367 17.6218C53.0037 17.5908 53.7047 16.8248 53.7007 15.9208C53.6957 15.0158 52.9907 14.3368 52.1267 14.3908C51.2617 14.4448 50.5597 15.1898 50.5607 16.0738C50.5627 16.9568 51.2687 17.6538 52.1367 17.6218Z" fill="#5260AB"/>
<path fill-rule="evenodd" clip-rule="evenodd" d="M47.8413 14.5564C46.9713 14.5724 46.2613 15.2774 46.2613 16.1534C46.2613 17.0284 46.9703 17.7374 47.8423 17.7284C48.7143 17.7204 49.4203 16.9914 49.4183 16.1104C49.4173 15.2284 48.7123 14.5414 47.8413 14.5564Z" fill="#5260AB"/>
<path fill-rule="evenodd" clip-rule="evenodd" d="M83.0711 15.4092C82.1171 15.5452 81.4151 16.7292 81.4651 18.0512C81.5171 19.3732 82.3121 20.4052 83.2791 20.3572C84.2451 20.3092 85.0101 19.1292 84.9451 17.7182C84.8811 16.3092 84.0241 15.2732 83.0711 15.4092Z" fill="#5260AB"/>
<path fill-rule="evenodd" clip-rule="evenodd" d="M78.4206 16.024C77.4916 16.15 76.7906 17.249 76.8276 18.476C76.8666 19.704 77.6386 20.662 78.5786 20.617C79.5186 20.573 80.2676 19.478 80.2176 18.168C80.1686 16.859 79.3486 15.897 78.4206 16.024Z" fill="#5260AB"/>
<path fill-rule="evenodd" clip-rule="evenodd" d="M73.8802 16.5895C72.9702 16.7035 72.2722 17.7235 72.2992 18.8635C72.3282 20.0055 73.0772 20.8965 73.9962 20.8565C74.9132 20.8165 75.6492 19.7995 75.6122 18.5835C75.5752 17.3685 74.7882 16.4745 73.8802 16.5895Z" fill="#5260AB"/>
<path fill-rule="evenodd" clip-rule="evenodd" d="M69.4295 17.0972C68.5375 17.1982 67.8395 18.1442 67.8585 19.2072C67.8775 20.2722 68.6105 21.1052 69.5105 21.0702C70.4105 21.0352 71.1345 20.0902 71.1085 18.9592C71.0825 17.8292 70.3225 16.9962 69.4295 17.0972Z" fill="#5260AB"/>
<path fill-rule="evenodd" clip-rule="evenodd" d="M65.0505 17.5388C64.1695 17.6258 63.4735 18.5028 63.4845 19.5008C63.4965 20.4998 64.2165 21.2868 65.1025 21.2558C65.9895 21.2258 66.7045 20.3468 66.6875 19.2908C66.6705 18.2358 65.9305 17.4518 65.0505 17.5388Z" fill="#5260AB"/>
<path fill-rule="evenodd" clip-rule="evenodd" d="M60.7223 17.906C59.8493 17.976 59.1523 18.795 59.1583 19.74C59.1653 20.686 59.8753 21.435 60.7533 21.41C61.6293 21.386 62.3383 20.562 62.3273 19.57C62.3173 18.58 61.5943 17.835 60.7223 17.906Z" fill="#5260AB"/>
<path fill-rule="evenodd" clip-rule="evenodd" d="M56.4249 18.1901C55.5569 18.2411 54.8559 19.0121 54.8579 19.9181C54.8609 20.8251 55.5679 21.5461 56.4399 21.5291C57.3119 21.5111 58.0159 20.7331 58.0099 19.7931C58.0049 18.8541 57.2939 18.1391 56.4249 18.1901Z" fill="#5260AB"/>
<path fill-rule="evenodd" clip-rule="evenodd" d="M52.1385 18.3828C51.2695 18.4128 50.5655 19.1468 50.5665 20.0288C50.5665 20.9098 51.2725 21.6208 52.1435 21.6088C53.0125 21.5988 53.7175 20.8558 53.7145 19.9538C53.7125 19.0518 53.0055 18.3518 52.1385 18.3828Z" fill="#5260AB"/>
<path fill-rule="evenodd" clip-rule="evenodd" d="M88.1494 26.6332C89.1454 26.6802 89.9954 25.4922 89.9954 23.9812C89.9954 23.6542 89.9554 23.3432 89.8834 23.0532C89.6894 22.2842 89.2624 21.6922 88.7414 21.4502C88.5544 21.3622 88.3544 21.3192 88.1494 21.3272C87.1524 21.3742 86.3804 22.5622 86.3794 23.9812C86.3814 25.3982 87.1524 26.5862 88.1494 26.6332Z" fill="#5260AB"/>
<path fill-rule="evenodd" clip-rule="evenodd" d="M83.3038 21.5172C82.3368 21.5612 81.5838 22.6642 81.5818 23.9812C81.5828 25.2962 82.3368 26.3992 83.3038 26.4432C84.2698 26.4872 85.0868 25.3852 85.0868 23.9812C85.0868 22.5752 84.2698 21.4732 83.3038 21.5172Z" fill="#5260AB"/>
<path fill-rule="evenodd" clip-rule="evenodd" d="M78.5973 21.6943C77.6563 21.7363 76.9163 22.7593 76.9153 23.9813C76.9163 25.2023 77.6563 26.2263 78.5973 26.2663C79.5373 26.3083 80.3263 25.2833 80.3263 23.9813C80.3263 22.6773 79.5373 21.6533 78.5973 21.6943Z" fill="#5260AB"/>
<path fill-rule="evenodd" clip-rule="evenodd" d="M74.0097 21.8568C73.0907 21.8938 72.3627 22.8448 72.3627 23.9808C72.3627 25.1158 73.0907 26.0678 74.0097 26.1038C74.9267 26.1418 75.6927 25.1908 75.6927 23.9808C75.6927 22.7708 74.9267 21.8198 74.0097 21.8568Z" fill="#5260AB"/>
<path fill-rule="evenodd" clip-rule="evenodd" d="M69.5197 22.0023C68.6197 22.0353 67.9017 22.9203 67.9017 23.9813C67.9017 25.0403 68.6197 25.9263 69.5197 25.9583C70.4197 25.9913 71.1667 25.1063 71.1657 23.9813C71.1657 22.8543 70.4207 21.9693 69.5197 22.0023Z" fill="#5260AB"/>
<path fill-rule="evenodd" clip-rule="evenodd" d="M65.1091 22.1283C64.2221 22.1563 63.5121 22.9853 63.5121 23.9813C63.5121 24.9763 64.2221 25.8053 65.1091 25.8323C65.9961 25.8603 66.7261 25.0313 66.7261 23.9813C66.7261 22.9293 65.9961 22.1003 65.1091 22.1283Z" fill="#5260AB"/>
<path fill-rule="evenodd" clip-rule="evenodd" d="M60.7565 22.2329C59.8795 22.2549 59.1735 23.0369 59.1735 23.9809C59.1735 24.9239 59.8795 25.7059 60.7565 25.7279C61.6335 25.7519 62.3515 24.9689 62.3505 23.9809C62.3515 22.9929 61.6345 22.2099 60.7565 22.2329Z" fill="#5260AB"/>
<path fill-rule="evenodd" clip-rule="evenodd" d="M56.4414 22.3137C55.5694 22.3297 54.8654 23.0757 54.8644 23.9807C54.8654 24.8857 55.5694 25.6317 56.4414 25.6477C57.3124 25.6647 58.0224 24.9187 58.0224 23.9807C58.0224 23.0427 57.3134 22.2967 56.4414 22.3137Z" fill="#5260AB"/>
<path fill-rule="evenodd" clip-rule="evenodd" d="M83.2792 27.6054C82.3132 27.5574 81.5172 28.5874 81.4652 29.9104C81.4152 31.2324 82.1172 32.4154 83.0712 32.5514C84.0242 32.6874 84.8812 31.6534 84.9452 30.2424C85.0092 28.8324 84.2452 27.6534 83.2792 27.6054Z" fill="#5260AB"/>
<path fill-rule="evenodd" clip-rule="evenodd" d="M78.5788 27.3448C77.6388 27.2998 76.8678 28.2568 76.8278 29.4848C76.7898 30.7128 77.4908 31.8108 78.4208 31.9368C79.3488 32.0628 80.1678 31.1028 80.2178 29.7928C80.2668 28.4828 79.5188 27.3888 78.5788 27.3448Z" fill="#5260AB"/>
<path fill-rule="evenodd" clip-rule="evenodd" d="M73.9961 27.1058C73.0781 27.0648 72.3271 27.9558 72.2991 29.0978C72.2721 30.2388 72.9711 31.2568 73.8801 31.3718C74.7881 31.4868 75.5751 30.5938 75.6121 29.3778C75.6491 28.1608 74.9131 27.1458 73.9961 27.1058Z" fill="#5260AB"/>
<path fill-rule="evenodd" clip-rule="evenodd" d="M69.5102 26.8918C68.6102 26.8568 67.8782 27.6888 67.8582 28.7538C67.8402 29.8188 68.5372 30.7628 69.4292 30.8638C70.3222 30.9648 71.0832 30.1328 71.1092 29.0008C71.1352 27.8708 70.4102 26.9268 69.5102 26.8918Z" fill="#5260AB"/>
<path fill-rule="evenodd" clip-rule="evenodd" d="M65.103 26.7064C64.216 26.6754 63.497 27.4604 63.485 28.4604C63.473 29.4584 64.17 30.3364 65.051 30.4224C65.931 30.5094 66.67 29.7264 66.688 28.6704C66.705 27.6154 65.989 26.7364 65.103 26.7064Z" fill="#5260AB"/>
<path fill-rule="evenodd" clip-rule="evenodd" d="M60.7529 26.5522C59.8749 26.5272 59.1659 27.2762 59.1579 28.2212C59.1519 29.1672 59.8489 29.9862 60.7219 30.0552C61.5949 30.1252 62.3169 29.3822 62.3279 28.3912C62.3389 27.3992 61.6299 26.5772 60.7529 26.5522Z" fill="#5260AB"/>
<path fill-rule="evenodd" clip-rule="evenodd" d="M56.4396 26.4335C55.5676 26.4145 54.8606 27.1375 54.8586 28.0435C54.8556 28.9505 55.5566 29.7195 56.4246 29.7715C57.2936 29.8225 58.0046 29.1085 58.0106 28.1675C58.0156 27.2275 57.3116 26.4505 56.4396 26.4335Z" fill="#5260AB"/>
<mask id="mask1_1_37" style="mask-type:alpha" maskUnits="userSpaceOnUse" x="100" y="36" width="5" height="8">
<path fill-rule="evenodd" clip-rule="evenodd" d="M100.582 36.8608H104.58V43.4153H100.582V36.8608Z" fill="white"/>
</mask>
<g mask="url(#mask1_1_37)">
<path fill-rule="evenodd" clip-rule="evenodd" d="M103.004 36.8741C101.914 36.7151 100.89 38.0051 100.639 39.7591C100.39 41.5131 100.977 43.1371 102.025 43.3851C102.857 43.5801 103.751 42.8141 104.234 41.5621C104.359 41.2371 104.455 40.8841 104.515 40.5061C104.563 40.2011 104.583 39.9031 104.579 39.6141C104.579 39.6121 104.579 39.6121 104.58 39.6101C104.56 38.1581 103.909 37.0101 103.004 36.8741Z" fill="#5260AB"/>
</g>
<path fill-rule="evenodd" clip-rule="evenodd" d="M82.9977 33.7234C82.0447 33.5834 81.2187 34.5514 81.1157 35.8924C81.0137 37.2324 81.6537 38.5084 82.5817 38.7354C83.5067 38.9624 84.3947 37.9824 84.5227 36.5554C84.6507 35.1274 83.9497 33.8634 82.9977 33.7234Z" fill="#5260AB"/>
<path fill-rule="evenodd" clip-rule="evenodd" d="M78.3646 33.0254C77.4356 32.8964 76.6416 33.7944 76.5656 35.0404C76.4896 36.2844 77.1416 37.4714 78.0476 37.6834C78.9536 37.8954 79.7936 36.9864 79.8916 35.6584C79.9916 34.3314 79.2926 33.1554 78.3646 33.0254Z" fill="#5260AB"/>
<path fill-rule="evenodd" clip-rule="evenodd" d="M73.8394 32.3826C72.9304 32.2646 72.1654 33.1026 72.1104 34.2606C72.0554 35.4166 72.7184 36.5146 73.6074 36.7096C74.4964 36.9036 75.2964 36.0586 75.3704 34.8246C75.4434 33.5916 74.7464 32.4996 73.8394 32.3826Z" fill="#5260AB"/>
<path fill-rule="evenodd" clip-rule="evenodd" d="M69.401 31.8046C68.51 31.6996 67.767 32.4876 67.73 33.5646C67.693 34.6416 68.363 35.6556 69.24 35.8276C70.117 36.0016 70.884 35.2126 70.937 34.0656C70.99 32.9196 70.293 31.9086 69.401 31.8046Z" fill="#5260AB"/>
<path fill-rule="evenodd" clip-rule="evenodd" d="M65.0321 31.3018C64.1511 31.2118 63.4271 31.9588 63.4041 32.9668C63.3801 33.9748 64.0591 34.9078 64.9271 35.0578C65.7951 35.2068 66.5371 34.4638 66.5731 33.3948C66.6081 32.3278 65.9121 31.3908 65.0321 31.3018Z" fill="#5260AB"/>
<path fill-rule="evenodd" clip-rule="evenodd" d="M60.7115 30.8833C59.8385 30.8113 59.1265 31.5273 59.1135 32.4793C59.1015 33.4313 59.7875 34.2933 60.6505 34.4133C61.5135 34.5343 62.2355 33.8263 62.2575 32.8253C62.2795 31.8253 61.5835 30.9553 60.7115 30.8833Z" fill="#5260AB"/>
<path fill-rule="evenodd" clip-rule="evenodd" d="M56.4198 30.5593C55.5508 30.5063 54.8438 31.2063 54.8388 32.1153C54.8338 33.0243 55.5278 33.8233 56.3898 33.9123C57.2518 34.0013 57.9628 33.3153 57.9738 32.3693C57.9848 31.4243 57.2888 30.6113 56.4198 30.5593Z" fill="#5260AB"/>
<path fill-rule="evenodd" clip-rule="evenodd" d="M82.459 39.9257C81.532 39.6947 80.686 40.6127 80.532 41.9827C80.379 43.3527 80.948 44.7277 81.835 45.0437C82.72 45.3597 83.625 44.4247 83.817 42.9717C84.009 41.5157 83.384 40.1567 82.459 39.9257Z" fill="#5260AB"/>
<path fill-rule="evenodd" clip-rule="evenodd" d="M77.955 38.7908C77.049 38.5748 76.243 39.4268 76.127 40.7008C76.012 41.9728 76.608 43.2578 77.48 43.5568C78.351 43.8568 79.202 42.9898 79.349 41.6328C79.498 40.2748 78.86 39.0068 77.955 38.7908Z" fill="#5260AB"/>
<path fill-rule="evenodd" clip-rule="evenodd" d="M73.1914 42.1629C74.0504 42.4399 74.8564 41.6359 74.9664 40.3749C75.0774 39.1129 74.4264 37.9349 73.5394 37.7369C72.6494 37.5389 71.8784 38.3349 71.7944 39.5169C71.7124 40.6979 72.3304 41.8859 73.1914 42.1629Z" fill="#5260AB"/>
<path fill-rule="evenodd" clip-rule="evenodd" d="M69.1921 36.7834C68.3161 36.6074 67.5711 37.3554 67.5151 38.4524C67.4591 39.5494 68.0971 40.6414 68.9501 40.8904C69.8031 41.1404 70.5711 40.3914 70.6501 39.2204C70.7291 38.0494 70.0681 36.9594 69.1921 36.7834Z" fill="#5260AB"/>
<path fill-rule="evenodd" clip-rule="evenodd" d="M64.8965 35.9478C64.0285 35.7958 63.3045 36.5078 63.2695 37.5308C63.2345 38.5528 63.8905 39.5518 64.7395 39.7678C65.5885 39.9838 66.3285 39.2778 66.3815 38.1918C66.4345 37.1038 65.7645 36.0988 64.8965 35.9478Z" fill="#5260AB"/>
<path fill-rule="evenodd" clip-rule="evenodd" d="M60.6326 35.2485C59.7696 35.1255 59.0586 35.8115 59.0396 36.7735C59.0206 37.7345 59.6916 38.6455 60.5416 38.8215C61.3906 38.9985 62.1086 38.3255 62.1406 37.3115C62.1736 36.2965 61.4956 35.3705 60.6326 35.2485Z" fill="#5260AB"/>
<path fill-rule="evenodd" clip-rule="evenodd" d="M81.6627 46.2664C80.7777 45.9474 79.9197 46.8204 79.7147 48.2334C79.5097 49.6444 79.9967 51.1304 80.8307 51.5324C81.6617 51.9344 82.5737 51.0354 82.8297 49.5394C83.0857 48.0434 82.5467 46.5854 81.6627 46.2664Z" fill="#5260AB"/>
<path fill-rule="evenodd" clip-rule="evenodd" d="M77.3495 44.696C76.4795 44.392 75.6675 45.202 75.5135 46.517C75.3605 47.832 75.8895 49.223 76.7165 49.611C77.5435 49.999 78.3925 49.167 78.5895 47.767C78.7875 46.367 78.2195 44.999 77.3495 44.696Z" fill="#5260AB"/>
<path fill-rule="evenodd" clip-rule="evenodd" d="M73.0958 43.2207C72.2368 42.9397 71.4628 43.6927 71.3528 44.9117C71.2428 46.1297 71.8098 47.4187 72.6328 47.7837C73.4528 48.1477 74.2548 47.3797 74.4018 46.0777C74.5498 44.7757 73.9548 43.5007 73.0958 43.2207Z" fill="#5260AB"/>
<path fill-rule="evenodd" clip-rule="evenodd" d="M68.8834 41.8707C68.0324 41.6177 67.2894 42.3247 67.2144 43.4527C67.1394 44.5807 67.7394 45.7617 68.5604 46.0937C69.3824 46.4257 70.1434 45.7137 70.2484 44.5077C70.3544 43.3007 69.7354 42.1237 68.8834 41.8707Z" fill="#5260AB"/>
<path fill-rule="evenodd" clip-rule="evenodd" d="M64.6963 40.6773C63.8473 40.4583 63.1273 41.1313 63.0803 42.1763C63.0343 43.2213 63.6623 44.2953 64.4873 44.5853C65.3113 44.8763 66.0423 44.2093 66.1133 43.0933C66.1843 41.9773 65.5443 40.8953 64.6963 40.6773Z" fill="#5260AB"/>
<path fill-rule="evenodd" clip-rule="evenodd" d="M76.5487 50.7905C75.7257 50.3995 74.9167 51.1745 74.7247 52.5415C74.5337 53.9085 74.9877 55.4225 75.7577 55.9005C76.1207 56.1235 76.4957 56.0675 76.8207 55.7885C76.8207 55.7875 76.8207 55.7875 76.8207 55.7865C76.9997 55.6335 77.1647 55.4105 77.2987 55.1335C77.2987 55.1325 77.2997 55.1325 77.2997 55.1315C77.4397 54.8465 77.5477 54.5015 77.6127 54.1155C77.8597 52.6615 77.3727 51.1825 76.5487 50.7905Z" fill="#5260AB"/>
<path fill-rule="evenodd" clip-rule="evenodd" d="M72.5094 48.8783C71.6894 48.5103 70.9224 49.2273 70.7844 50.4923C70.6464 51.7563 71.1554 53.1633 71.9294 53.6203C72.7024 54.0783 73.4914 53.3363 73.6764 51.9833C73.8604 50.6283 73.3294 49.2463 72.5094 48.8783Z" fill="#5260AB"/>
<path fill-rule="evenodd" clip-rule="evenodd" d="M68.4749 47.1051C67.6549 46.7701 66.9209 47.4401 66.8279 48.6051C66.7349 49.7691 67.2899 51.0571 68.0709 51.4791C68.8529 51.9031 69.6009 51.2231 69.7329 49.9721C69.8639 48.7191 69.2949 47.4411 68.4749 47.1051Z" fill="#5260AB"/>
<path fill-rule="evenodd" clip-rule="evenodd" d="M64.4313 45.5192C63.6083 45.2252 62.8973 45.8612 62.8383 46.9342C62.7803 48.0062 63.3763 49.1712 64.1693 49.5442C64.9623 49.9182 65.6803 49.2892 65.7683 48.1362C65.8563 46.9842 65.2543 45.8122 64.4313 45.5192Z" fill="#5260AB"/>
<path fill-rule="evenodd" clip-rule="evenodd" d="M86.0532 47.9016C85.1492 47.5726 84.2362 48.5136 83.9702 50.0216C83.7062 51.5286 84.1452 53.0976 84.9902 53.5046C85.8322 53.9126 86.8142 52.9436 87.1382 51.3586C87.4632 49.7716 86.9552 48.2316 86.0532 47.9016Z" fill="#5260AB"/>
<path fill-rule="evenodd" clip-rule="evenodd" d="M87.0702 41.1235C86.1202 40.8825 85.2242 41.8705 85.0242 43.3385C84.8272 44.8055 85.3672 46.2715 86.2722 46.5975C87.1762 46.9235 88.1462 45.9195 88.3882 44.3675C88.6322 42.8135 88.0192 41.3655 87.0702 41.1235Z" fill="#5260AB"/>
<path fill-rule="evenodd" clip-rule="evenodd" d="M87.7583 34.4673C86.7763 34.3193 85.9113 35.3623 85.7773 36.8033C85.6463 38.2433 86.2753 39.6103 87.2263 39.8483C88.1773 40.0843 89.1193 39.0323 89.2813 37.5013C89.4443 35.9703 88.7383 34.6153 87.7583 34.4673Z" fill="#5260AB"/>
<path fill-rule="evenodd" clip-rule="evenodd" d="M87.8523 33.2073C88.8333 33.3503 89.7363 32.2363 89.8173 30.7203C89.8983 29.2023 89.1133 27.9353 88.1183 27.8843C87.1213 27.8343 86.2973 28.9433 86.2293 30.3673C86.1643 31.7913 86.8703 33.0643 87.8523 33.2073Z" fill="#5260AB"/>
<path fill-rule="evenodd" clip-rule="evenodd" d="M91.8075 42.3661C90.8305 42.1181 89.8765 43.1791 89.6255 44.7461C89.3765 46.3111 89.8855 47.8591 90.8125 48.1891C91.7375 48.5201 92.7795 47.4451 93.0795 45.7981C93.3805 44.1491 92.7845 42.6141 91.8075 42.3661Z" fill="#5260AB"/>
<path fill-rule="evenodd" clip-rule="evenodd" d="M92.6662 35.2466C91.6542 35.0936 90.7402 36.2146 90.5722 37.7596C90.4072 39.3046 91.0242 40.7596 92.0022 41.0046C92.9812 41.2486 93.9862 40.1186 94.1862 38.4836C94.3872 36.8476 93.6782 35.3996 92.6662 35.2466Z" fill="#5260AB"/>
<path fill-rule="evenodd" clip-rule="evenodd" d="M96.6909 43.6354C95.6809 43.3834 94.6629 44.5224 94.3529 46.1824C94.0449 47.8414 94.5189 49.4614 95.4719 49.7914C96.4229 50.1204 97.5469 48.9764 97.9119 47.2414C98.2779 45.5024 97.6979 43.8874 96.6909 43.6354Z" fill="#5260AB"/>
<path fill-rule="evenodd" clip-rule="evenodd" d="M97.7425 36.0521C96.6925 35.8941 95.7275 37.1001 95.5205 38.7491C95.3155 40.3991 95.9185 41.9401 96.9295 42.1891C97.9385 42.4371 99.0145 41.2291 99.2575 39.4891C99.5025 37.7481 98.7895 36.2101 97.7425 36.0521Z" fill="#5260AB"/>
<path fill-rule="evenodd" clip-rule="evenodd" d="M27.1184 41.0654V55.7624H29.8144V51.8724H32.7944L33.4974 49.8394H29.8144V43.3194H35.7534L36.5334 41.0654H27.1184Z" fill="#5260AB"/>
<path fill-rule="evenodd" clip-rule="evenodd" d="M8.53 48.5009C8.089 48.1619 7.666 47.8999 7.26 47.7079C7.251 47.7029 7.239 47.6989 7.229 47.6949C6.831 47.5079 6.379 47.3349 5.871 47.1779C5.345 47.0129 4.851 46.8569 4.387 46.7009C3.924 46.5459 3.572 46.3489 3.336 46.1129C2.984 45.7619 2.806 45.3469 2.806 44.8789C2.806 44.2289 3.02 43.7479 3.438 43.4409C3.67 43.2709 3.977 43.1469 4.352 43.0709C4.352 43.0709 4.401 43.0619 4.494 43.0439C4.516 43.0399 4.543 43.0349 4.57 43.0349C4.632 43.0259 4.704 43.0169 4.784 43.0089C4.842 42.9999 4.895 42.9949 4.957 42.9949C4.989 42.9949 5.02 42.9909 5.051 42.9909C5.158 42.9819 5.269 42.9769 5.381 42.9769C5.755 42.9769 6.067 43.0039 6.312 43.0579C6.347 43.0619 6.387 43.0709 6.427 43.0799C7.103 43.2019 7.842 43.4839 8.479 44.0429L9.283 41.6949V41.6939C7.987 41.0929 6.583 40.7899 5.073 40.7899C3.563 40.7899 2.338 41.1779 1.403 41.9479C0.467 42.7229 0 43.7839 0 45.1329C0 46.4789 0.436 47.4759 1.305 48.1269C1.746 48.4519 2.187 48.7059 2.619 48.8889C3.055 49.0709 3.599 49.2539 4.254 49.4319C4.913 49.6059 5.443 49.7969 5.857 50.0069C6.041 50.0899 6.201 50.1839 6.341 50.2879C6.798 50.6259 7.029 51.0759 7.029 51.6409C7.029 52.8179 6.407 53.4999 5.175 53.6969C5.096 53.7089 5.023 53.7269 4.94 53.7349C4.94 53.7349 4.922 53.7349 4.891 53.7399C4.541 53.7799 2.348 53.9549 0.898 52.7049L0.066 55.1339C1.363 55.7349 2.828 56.0379 4.454 56.0379C6.08 56.0379 7.394 55.6419 8.387 54.8439C9.381 54.0509 9.88 52.9599 9.88 51.5749C9.88 50.1889 9.43 49.1649 8.53 48.5009Z" fill="#5260AB"/>
<path fill-rule="evenodd" clip-rule="evenodd" d="M19.0959 41.0655H16.0289L11.7769 53.4895L10.9989 55.7625H13.5479L14.2559 53.8175L14.9189 51.8725L15.4499 49.8395L17.5049 43.5405H17.5709L19.5599 49.8395H17.2309L16.7009 51.8725H20.0909L20.5969 53.4415L21.3469 55.7625H24.3929L23.6049 53.8175L19.0959 41.0655Z" fill="#5260AB"/>
<path fill-rule="evenodd" clip-rule="evenodd" d="M48.8959 53.8177L44.3869 41.0657H41.3209L37.0679 53.4887L36.2899 55.7627H38.8389L39.5469 53.8177L40.2099 51.8727L40.7409 49.8397L42.7959 43.5407H42.8619L44.8509 49.8397H42.5229L41.9919 51.8727H45.3819L45.8889 53.4417L46.6379 55.7627H49.6839L48.8959 53.8177Z" fill="#5260AB"/>
<path fill-rule="evenodd" clip-rule="evenodd" d="M24.7805 25.0816C25.1975 25.0816 25.5595 24.9506 25.8685 24.6886C26.1775 24.4266 26.3325 24.0396 26.3325 23.5286C26.3325 23.0736 26.1835 22.7046 25.8875 22.4216C25.5915 22.1386 25.2215 21.9976 24.7805 21.9976C24.3385 21.9976 23.9695 22.1386 23.6735 22.4216C23.3765 22.7046 23.2285 23.0736 23.2285 23.5286C23.2285 24.0396 23.3825 24.4266 23.6925 24.6886C24.0015 24.9506 24.3645 25.0816 24.7805 25.0816Z" fill="#5260AB"/>
<path fill-rule="evenodd" clip-rule="evenodd" d="M47.0357 34.3866H38.8777V29.9586H44.9147C45.2557 29.9586 45.5697 30.0286 45.8527 30.1676C46.1367 30.3076 46.3607 30.4826 46.5237 30.6956C46.7027 30.9126 46.8307 31.1606 46.9117 31.4436C46.9967 31.7266 47.0357 32.0606 47.0357 32.4366V34.3866ZM49.4397 30.3856C49.2767 29.7226 48.9897 29.1756 48.5867 28.7486C48.1097 28.2446 47.5477 27.8806 46.9037 27.6596C46.2607 27.4386 45.5077 27.3296 44.6507 27.3296H38.8777V26.3836H36.2297V34.3856H34.6867V34.3866H30.4487V36.7256H36.2297H36.4957H49.6837V32.5526C49.6837 31.7696 49.6027 31.0486 49.4397 30.3856Z" fill="#5260AB"/>
<path fill-rule="evenodd" clip-rule="evenodd" d="M26.067 34.3866H23.326C22.884 34.0846 22.531 33.7046 22.275 33.2506C22.015 32.7966 21.887 32.2816 21.887 31.6996C21.887 31.2736 21.973 30.8896 22.151 30.5556C22.329 30.2226 22.558 29.9396 22.841 29.7146C23.124 29.4856 23.454 29.3146 23.826 29.2026C24.198 29.0906 24.574 29.0316 24.95 29.0316H26.067V34.3866ZM23.004 26.7406C22.221 26.9806 21.55 27.3296 20.996 27.7916C20.441 28.2526 20.011 28.8106 19.7 29.4666C19.39 30.1216 19.235 30.8656 19.235 31.6996C19.235 32.2426 19.32 32.7346 19.483 33.1766C19.646 33.6186 19.867 34.0226 20.146 34.3866H2.648V21.9976L0 24.3406V36.7256H28.719V26.3836H25.594C24.648 26.3836 23.783 26.5036 23.004 26.7406Z" fill="#5260AB"/>
<mask id="mask2_1_37" style="mask-type:alpha" maskUnits="userSpaceOnUse" x="58" y="0" width="4" height="4">
<path fill-rule="evenodd" clip-rule="evenodd" d="M58.8015 0H61.7709V3.84582H58.8015V0Z" fill="white"/>
</mask>
<g mask="url(#mask2_1_37)">
<path fill-rule="evenodd" clip-rule="evenodd" d="M60.3617 3.7931C61.1907 3.5511 61.8217 2.4881 61.7677 1.4281C61.7127 0.367099 61.0167 -0.228901 60.2097 0.0820993C59.4017 0.394099 58.7707 1.4311 58.8027 2.4231C58.8337 3.4151 59.5317 4.0361 60.3617 3.7931Z" fill="white"/>
</g>
<path fill-rule="evenodd" clip-rule="evenodd" d="M56.2505 4.8625C57.0905 4.6815 57.7445 3.7245 57.7165 2.7425C57.6875 1.7595 57.0005 1.1745 56.1765 1.4095C55.3525 1.6455 54.6895 2.5615 54.7035 3.4905C54.7165 4.4195 55.4105 5.0445 56.2505 4.8625Z" fill="white"/>
<path fill-rule="evenodd" clip-rule="evenodd" d="M64.6963 7.285C65.5453 7.067 66.1833 5.983 66.1133 4.868C66.0423 3.752 65.3113 3.085 64.4863 3.376C63.6623 3.666 63.0343 4.74 63.0803 5.784C63.1273 6.829 63.8473 7.504 64.6963 7.285Z" fill="white"/>
<path fill-rule="evenodd" clip-rule="evenodd" d="M60.516 8.292C61.365 8.113 62.02 7.124 61.978 6.089C61.934 5.055 61.225 4.419 60.394 4.658C59.564 4.897 58.911 5.868 58.936 6.841C58.961 7.815 59.668 8.471 60.516 8.292Z" fill="white"/>
<path fill-rule="evenodd" clip-rule="evenodd" d="M56.3251 9.0818C57.1771 8.9498 57.8501 8.0478 57.8261 7.0808C57.8031 6.1148 57.1061 5.4918 56.2661 5.6708C55.4261 5.8498 54.7501 6.7208 54.7611 7.6408C54.7721 8.5618 55.4731 9.2158 56.3251 9.0818Z" fill="white"/>
<path fill-rule="evenodd" clip-rule="evenodd" d="M52.1059 9.6241C52.9649 9.5441 53.6519 8.7201 53.6429 7.8061C53.6339 6.8921 52.9379 6.2611 52.0869 6.3711C51.2339 6.4811 50.5399 7.2621 50.5419 8.1481C50.5449 9.0331 51.2469 9.7061 52.1059 9.6241Z" fill="white"/>
<path fill-rule="evenodd" clip-rule="evenodd" d="M77.9548 9.17C78.8598 8.954 79.4978 7.686 79.3488 6.329C79.2828 5.716 79.0698 5.196 78.7768 4.845H78.7758C78.5778 4.607 78.3428 4.447 78.0898 4.381C77.8948 4.329 77.6878 4.335 77.4798 4.404C76.6078 4.703 76.0128 5.987 76.1268 7.261C76.2418 8.534 77.0498 9.385 77.9548 9.17Z" fill="white"/>
<path fill-rule="evenodd" clip-rule="evenodd" d="M73.5392 10.2235C74.4262 10.0255 75.0772 8.8475 74.9662 7.5865C74.8562 6.3245 74.0512 5.5205 73.1912 5.7985C72.3302 6.0755 71.7122 7.2635 71.7942 8.4455C71.8772 9.6265 72.6502 10.4205 73.5392 10.2235Z" fill="white"/>
<path fill-rule="evenodd" clip-rule="evenodd" d="M69.1921 11.1775C70.0681 11.0015 70.7281 9.9115 70.6501 8.7415C70.5711 7.5695 69.8021 6.8215 68.9501 7.0705C68.0971 7.3195 67.4591 8.4125 67.5151 9.5095C67.5711 10.6075 68.3171 11.3535 69.1921 11.1775Z" fill="white"/>
<path fill-rule="evenodd" clip-rule="evenodd" d="M64.7394 8.1936C63.8904 8.4096 63.2344 9.4086 63.2694 10.4316C63.3044 11.4536 64.0284 12.1646 64.8964 12.0136C65.7644 11.8616 66.4334 10.8576 66.3814 9.7706C66.3284 8.6826 65.5884 7.9776 64.7394 8.1936Z" fill="white"/>
<path fill-rule="evenodd" clip-rule="evenodd" d="M60.5413 9.1393C59.6913 9.3143 59.0203 10.2273 59.0393 11.1883C59.0583 12.1483 59.7703 12.8353 60.6323 12.7123C61.4953 12.5893 62.1743 11.6643 62.1413 10.6503C62.1083 9.6353 61.3903 8.9633 60.5413 9.1393Z" fill="white"/>
<path fill-rule="evenodd" clip-rule="evenodd" d="M56.3816 13.2573C57.2436 13.1673 57.9296 12.3123 57.9126 11.3593C57.8956 10.4053 57.1896 9.7493 56.3376 9.8803C55.4846 10.0113 54.7986 10.8433 54.8066 11.7573C54.8146 12.6703 55.5196 13.3483 56.3816 13.2573Z" fill="white"/>
<path fill-rule="evenodd" clip-rule="evenodd" d="M52.1244 13.6287C52.9874 13.5747 53.6834 12.7827 53.6764 11.8747C53.6694 10.9647 52.9684 10.3087 52.1094 10.3877C51.2494 10.4667 50.5514 11.2297 50.5534 12.1147C50.5554 12.9977 51.2594 13.6837 52.1244 13.6287Z" fill="white"/>
<path fill-rule="evenodd" clip-rule="evenodd" d="M47.8412 13.8088C48.7122 13.7938 49.4162 13.0528 49.4142 12.1718C49.4132 11.2898 48.7102 10.6128 47.8402 10.6358C46.9712 10.6578 46.2612 11.3638 46.2612 12.2398C46.2612 13.1138 46.9712 13.8238 47.8412 13.8088Z" fill="white"/>
<path fill-rule="evenodd" clip-rule="evenodd" d="M82.9975 14.2373C83.9495 14.0983 84.6505 12.8333 84.5225 11.4053C84.3935 9.9783 83.5075 9.0003 82.5815 9.2273C81.6545 9.4533 81.0135 10.7283 81.1155 12.0683C81.2175 13.4093 82.0455 14.3763 82.9975 14.2373Z" fill="white"/>
<path fill-rule="evenodd" clip-rule="evenodd" d="M78.048 10.2788C77.141 10.4918 76.489 11.6748 76.565 12.9208C76.643 14.1668 77.436 15.0638 78.365 14.9358C79.292 14.8058 79.991 13.6298 79.892 12.3018C79.793 10.9748 78.954 10.0658 78.048 10.2788Z" fill="white"/>
<path fill-rule="evenodd" clip-rule="evenodd" d="M73.6075 11.2534C72.7175 11.4474 72.0555 12.5444 72.1105 13.7004C72.1655 14.8584 72.9305 15.6964 73.8395 15.5784C74.7465 15.4604 75.4435 14.3694 75.3705 13.1364C75.2965 11.9024 74.4965 11.0594 73.6075 11.2534Z" fill="white"/>
<path fill-rule="evenodd" clip-rule="evenodd" d="M69.2396 12.1342C68.3626 12.3072 67.6926 13.3192 67.7296 14.3962C67.7676 15.4742 68.5096 16.2612 69.4006 16.1562C70.2936 16.0512 70.9886 15.0412 70.9366 13.8952C70.8836 12.7492 70.1166 11.9602 69.2396 12.1342Z" fill="white"/>
<path fill-rule="evenodd" clip-rule="evenodd" d="M64.9273 12.9048C64.0593 13.0538 63.3813 13.9858 63.4043 14.9948C63.4273 16.0028 64.1513 16.7488 65.0323 16.6598C65.9123 16.5708 66.6073 15.6328 66.5723 14.5658C66.5373 13.4978 65.7953 12.7558 64.9273 12.9048Z" fill="white"/>
<path fill-rule="evenodd" clip-rule="evenodd" d="M60.6505 13.549C59.7875 13.669 59.1015 14.53 59.1135 15.482C59.1265 16.434 59.8395 17.15 60.7115 17.078C61.5835 17.006 62.2785 16.136 62.2575 15.136C62.2355 14.136 61.5135 13.428 60.6505 13.549Z" fill="white"/>
<path fill-rule="evenodd" clip-rule="evenodd" d="M56.3903 14.0498C55.5283 14.1378 54.8333 14.9368 54.8393 15.8458C54.8443 16.7558 55.5513 17.4548 56.4203 17.4018C57.2883 17.3488 57.9853 16.5368 57.9733 15.5918C57.9623 14.6458 57.2523 13.9608 56.3903 14.0498Z" fill="white"/>
<path fill-rule="evenodd" clip-rule="evenodd" d="M52.1367 17.6218C53.0037 17.5908 53.7047 16.8248 53.7007 15.9208C53.6957 15.0158 52.9907 14.3368 52.1267 14.3908C51.2617 14.4448 50.5597 15.1898 50.5607 16.0738C50.5627 16.9568 51.2687 17.6538 52.1367 17.6218Z" fill="white"/>
<path fill-rule="evenodd" clip-rule="evenodd" d="M47.8413 14.5564C46.9713 14.5724 46.2613 15.2774 46.2613 16.1534C46.2613 17.0284 46.9703 17.7374 47.8423 17.7284C48.7143 17.7204 49.4203 16.9914 49.4183 16.1104C49.4173 15.2284 48.7123 14.5414 47.8413 14.5564Z" fill="white"/>
<path fill-rule="evenodd" clip-rule="evenodd" d="M83.0711 15.4092C82.1171 15.5452 81.4151 16.7292 81.4651 18.0512C81.5171 19.3732 82.3121 20.4052 83.2791 20.3572C84.2451 20.3092 85.0101 19.1292 84.9451 17.7182C84.8811 16.3092 84.0241 15.2732 83.0711 15.4092Z" fill="white"/>
<path fill-rule="evenodd" clip-rule="evenodd" d="M78.4206 16.024C77.4916 16.15 76.7906 17.249 76.8276 18.476C76.8666 19.704 77.6386 20.662 78.5786 20.617C79.5186 20.573 80.2676 19.478 80.2176 18.168C80.1686 16.859 79.3486 15.897 78.4206 16.024Z" fill="white"/>
<path fill-rule="evenodd" clip-rule="evenodd" d="M73.8802 16.5895C72.9702 16.7035 72.2722 17.7235 72.2992 18.8635C72.3282 20.0055 73.0772 20.8965 73.9962 20.8565C74.9132 20.8165 75.6492 19.7995 75.6122 18.5835C75.5752 17.3685 74.7882 16.4745 73.8802 16.5895Z" fill="white"/>
<path fill-rule="evenodd" clip-rule="evenodd" d="M69.4295 17.0972C68.5375 17.1982 67.8395 18.1442 67.8585 19.2072C67.8775 20.2722 68.6105 21.1052 69.5105 21.0702C70.4105 21.0352 71.1345 20.0902 71.1085 18.9592C71.0825 17.8292 70.3225 16.9962 69.4295 17.0972Z" fill="white"/>
<path fill-rule="evenodd" clip-rule="evenodd" d="M65.0505 17.5388C64.1695 17.6258 63.4735 18.5028 63.4845 19.5008C63.4965 20.4998 64.2165 21.2868 65.1025 21.2558C65.9895 21.2258 66.7045 20.3468 66.6875 19.2908C66.6705 18.2358 65.9305 17.4518 65.0505 17.5388Z" fill="white"/>
<path fill-rule="evenodd" clip-rule="evenodd" d="M60.7223 17.906C59.8493 17.976 59.1523 18.795 59.1583 19.74C59.1653 20.686 59.8753 21.435 60.7533 21.41C61.6293 21.386 62.3383 20.562 62.3273 19.57C62.3173 18.58 61.5943 17.835 60.7223 17.906Z" fill="white"/>
<path fill-rule="evenodd" clip-rule="evenodd" d="M56.4249 18.1901C55.5569 18.2411 54.8559 19.0121 54.8579 19.9181C54.8609 20.8251 55.5679 21.5461 56.4399 21.5291C57.3119 21.5111 58.0159 20.7331 58.0099 19.7931C58.0049 18.8541 57.2939 18.1391 56.4249 18.1901Z" fill="white"/>
<path fill-rule="evenodd" clip-rule="evenodd" d="M52.1385 18.3828C51.2695 18.4128 50.5655 19.1468 50.5665 20.0288C50.5665 20.9098 51.2725 21.6208 52.1435 21.6088C53.0125 21.5988 53.7175 20.8558 53.7145 19.9538C53.7125 19.0518 53.0055 18.3518 52.1385 18.3828Z" fill="white"/>
<path fill-rule="evenodd" clip-rule="evenodd" d="M88.1494 26.6332C89.1454 26.6802 89.9954 25.4922 89.9954 23.9812C89.9954 23.6542 89.9554 23.3432 89.8834 23.0532C89.6894 22.2842 89.2624 21.6922 88.7414 21.4502C88.5544 21.3622 88.3544 21.3192 88.1494 21.3272C87.1524 21.3742 86.3804 22.5622 86.3794 23.9812C86.3814 25.3982 87.1524 26.5862 88.1494 26.6332Z" fill="white"/>
<path fill-rule="evenodd" clip-rule="evenodd" d="M83.3038 21.5172C82.3368 21.5612 81.5838 22.6642 81.5818 23.9812C81.5828 25.2962 82.3368 26.3992 83.3038 26.4432C84.2698 26.4872 85.0868 25.3852 85.0868 23.9812C85.0868 22.5752 84.2698 21.4732 83.3038 21.5172Z" fill="white"/>
<path fill-rule="evenodd" clip-rule="evenodd" d="M78.5973 21.6943C77.6563 21.7363 76.9163 22.7593 76.9153 23.9813C76.9163 25.2023 77.6563 26.2263 78.5973 26.2663C79.5373 26.3083 80.3263 25.2833 80.3263 23.9813C80.3263 22.6773 79.5373 21.6533 78.5973 21.6943Z" fill="white"/>
<path fill-rule="evenodd" clip-rule="evenodd" d="M74.0097 21.8568C73.0907 21.8938 72.3627 22.8448 72.3627 23.9808C72.3627 25.1158 73.0907 26.0678 74.0097 26.1038C74.9267 26.1418 75.6927 25.1908 75.6927 23.9808C75.6927 22.7708 74.9267 21.8198 74.0097 21.8568Z" fill="white"/>
<path fill-rule="evenodd" clip-rule="evenodd" d="M69.5197 22.0023C68.6197 22.0353 67.9017 22.9203 67.9017 23.9813C67.9017 25.0403 68.6197 25.9263 69.5197 25.9583C70.4197 25.9913 71.1667 25.1063 71.1657 23.9813C71.1657 22.8543 70.4207 21.9693 69.5197 22.0023Z" fill="white"/>
<path fill-rule="evenodd" clip-rule="evenodd" d="M65.1091 22.1283C64.2221 22.1563 63.5121 22.9853 63.5121 23.9813C63.5121 24.9763 64.2221 25.8053 65.1091 25.8323C65.9961 25.8603 66.7261 25.0313 66.7261 23.9813C66.7261 22.9293 65.9961 22.1003 65.1091 22.1283Z" fill="white"/>
<path fill-rule="evenodd" clip-rule="evenodd" d="M60.7565 22.2329C59.8795 22.2549 59.1735 23.0369 59.1735 23.9809C59.1735 24.9239 59.8795 25.7059 60.7565 25.7279C61.6335 25.7519 62.3515 24.9689 62.3505 23.9809C62.3515 22.9929 61.6345 22.2099 60.7565 22.2329Z" fill="white"/>
<path fill-rule="evenodd" clip-rule="evenodd" d="M56.4414 22.3137C55.5694 22.3297 54.8654 23.0757 54.8644 23.9807C54.8654 24.8857 55.5694 25.6317 56.4414 25.6477C57.3124 25.6647 58.0224 24.9187 58.0224 23.9807C58.0224 23.0427 57.3134 22.2967 56.4414 22.3137Z" fill="white"/>
<path fill-rule="evenodd" clip-rule="evenodd" d="M83.2792 27.6054C82.3132 27.5574 81.5172 28.5874 81.4652 29.9104C81.4152 31.2324 82.1172 32.4154 83.0712 32.5514C84.0242 32.6874 84.8812 31.6534 84.9452 30.2424C85.0092 28.8324 84.2452 27.6534 83.2792 27.6054Z" fill="white"/>
<path fill-rule="evenodd" clip-rule="evenodd" d="M78.5788 27.3448C77.6388 27.2998 76.8678 28.2568 76.8278 29.4848C76.7898 30.7128 77.4908 31.8108 78.4208 31.9368C79.3488 32.0628 80.1678 31.1028 80.2178 29.7928C80.2668 28.4828 79.5188 27.3888 78.5788 27.3448Z" fill="white"/>
<path fill-rule="evenodd" clip-rule="evenodd" d="M73.9961 27.1058C73.0781 27.0648 72.3271 27.9558 72.2991 29.0978C72.2721 30.2388 72.9711 31.2568 73.8801 31.3718C74.7881 31.4868 75.5751 30.5938 75.6121 29.3778C75.6491 28.1608 74.9131 27.1458 73.9961 27.1058Z" fill="white"/>
<path fill-rule="evenodd" clip-rule="evenodd" d="M69.5102 26.8918C68.6102 26.8568 67.8782 27.6888 67.8582 28.7538C67.8402 29.8188 68.5372 30.7628 69.4292 30.8638C70.3222 30.9648 71.0832 30.1328 71.1092 29.0008C71.1352 27.8708 70.4102 26.9268 69.5102 26.8918Z" fill="white"/>
<path fill-rule="evenodd" clip-rule="evenodd" d="M65.103 26.7064C64.216 26.6754 63.497 27.4604 63.485 28.4604C63.473 29.4584 64.17 30.3364 65.051 30.4224C65.931 30.5094 66.67 29.7264 66.688 28.6704C66.705 27.6154 65.989 26.7364 65.103 26.7064Z" fill="white"/>
<path fill-rule="evenodd" clip-rule="evenodd" d="M60.7529 26.5522C59.8749 26.5272 59.1659 27.2762 59.1579 28.2212C59.1519 29.1672 59.8489 29.9862 60.7219 30.0552C61.5949 30.1252 62.3169 29.3822 62.3279 28.3912C62.3389 27.3992 61.6299 26.5772 60.7529 26.5522Z" fill="white"/>
<path fill-rule="evenodd" clip-rule="evenodd" d="M56.4396 26.4335C55.5676 26.4145 54.8606 27.1375 54.8586 28.0435C54.8556 28.9505 55.5566 29.7195 56.4246 29.7715C57.2936 29.8225 58.0046 29.1085 58.0106 28.1675C58.0156 27.2275 57.3116 26.4505 56.4396 26.4335Z" fill="white"/>
<mask id="mask3_1_37" style="mask-type:alpha" maskUnits="userSpaceOnUse" x="100" y="36" width="5" height="8">
<path fill-rule="evenodd" clip-rule="evenodd" d="M100.582 36.8608H104.58V43.4153H100.582V36.8608Z" fill="white"/>
</mask>
<g mask="url(#mask3_1_37)">
<path fill-rule="evenodd" clip-rule="evenodd" d="M103.004 36.8741C101.914 36.7151 100.89 38.0051 100.639 39.7591C100.39 41.5131 100.977 43.1371 102.025 43.3851C102.857 43.5801 103.751 42.8141 104.234 41.5621C104.359 41.2371 104.455 40.8841 104.515 40.5061C104.563 40.2011 104.583 39.9031 104.579 39.6141C104.579 39.6121 104.579 39.6121 104.58 39.6101C104.56 38.1581 103.909 37.0101 103.004 36.8741Z" fill="white"/>
</g>
<path fill-rule="evenodd" clip-rule="evenodd" d="M82.9977 33.7234C82.0447 33.5834 81.2187 34.5514 81.1157 35.8924C81.0137 37.2324 81.6537 38.5084 82.5817 38.7354C83.5067 38.9624 84.3947 37.9824 84.5227 36.5554C84.6507 35.1274 83.9497 33.8634 82.9977 33.7234Z" fill="white"/>
<path fill-rule="evenodd" clip-rule="evenodd" d="M78.3646 33.0254C77.4356 32.8964 76.6416 33.7944 76.5656 35.0404C76.4896 36.2844 77.1416 37.4714 78.0476 37.6834C78.9536 37.8954 79.7936 36.9864 79.8916 35.6584C79.9916 34.3314 79.2926 33.1554 78.3646 33.0254Z" fill="white"/>
<path fill-rule="evenodd" clip-rule="evenodd" d="M73.8394 32.3826C72.9304 32.2646 72.1654 33.1026 72.1104 34.2606C72.0554 35.4166 72.7184 36.5146 73.6074 36.7096C74.4964 36.9036 75.2964 36.0586 75.3704 34.8246C75.4434 33.5916 74.7464 32.4996 73.8394 32.3826Z" fill="white"/>
<path fill-rule="evenodd" clip-rule="evenodd" d="M69.401 31.8046C68.51 31.6996 67.767 32.4876 67.73 33.5646C67.693 34.6416 68.363 35.6556 69.24 35.8276C70.117 36.0016 70.884 35.2126 70.937 34.0656C70.99 32.9196 70.293 31.9086 69.401 31.8046Z" fill="white"/>
<path fill-rule="evenodd" clip-rule="evenodd" d="M65.0321 31.3018C64.1511 31.2118 63.4271 31.9588 63.4041 32.9668C63.3801 33.9748 64.0591 34.9078 64.9271 35.0578C65.7951 35.2068 66.5371 34.4638 66.5731 33.3948C66.6081 32.3278 65.9121 31.3908 65.0321 31.3018Z" fill="white"/>
<path fill-rule="evenodd" clip-rule="evenodd" d="M60.7115 30.8833C59.8385 30.8113 59.1265 31.5273 59.1135 32.4793C59.1015 33.4313 59.7875 34.2933 60.6505 34.4133C61.5135 34.5343 62.2355 33.8263 62.2575 32.8253C62.2795 31.8253 61.5835 30.9553 60.7115 30.8833Z" fill="white"/>
<path fill-rule="evenodd" clip-rule="evenodd" d="M56.4198 30.5593C55.5508 30.5063 54.8438 31.2063 54.8388 32.1153C54.8338 33.0243 55.5278 33.8233 56.3898 33.9123C57.2518 34.0013 57.9628 33.3153 57.9738 32.3693C57.9848 31.4243 57.2888 30.6113 56.4198 30.5593Z" fill="white"/>
<path fill-rule="evenodd" clip-rule="evenodd" d="M82.459 39.9257C81.532 39.6947 80.686 40.6127 80.532 41.9827C80.379 43.3527 80.948 44.7277 81.835 45.0437C82.72 45.3597 83.625 44.4247 83.817 42.9717C84.009 41.5157 83.384 40.1567 82.459 39.9257Z" fill="white"/>
<path fill-rule="evenodd" clip-rule="evenodd" d="M77.955 38.7908C77.049 38.5748 76.243 39.4268 76.127 40.7008C76.012 41.9728 76.608 43.2578 77.48 43.5568C78.351 43.8568 79.202 42.9898 79.349 41.6328C79.498 40.2748 78.86 39.0068 77.955 38.7908Z" fill="white"/>
<path fill-rule="evenodd" clip-rule="evenodd" d="M73.1914 42.1629C74.0504 42.4399 74.8564 41.6359 74.9664 40.3749C75.0774 39.1129 74.4264 37.9349 73.5394 37.7369C72.6494 37.5389 71.8784 38.3349 71.7944 39.5169C71.7124 40.6979 72.3304 41.8859 73.1914 42.1629Z" fill="white"/>
<path fill-rule="evenodd" clip-rule="evenodd" d="M69.1921 36.7834C68.3161 36.6074 67.5711 37.3554 67.5151 38.4524C67.4591 39.5494 68.0971 40.6414 68.9501 40.8904C69.8031 41.1404 70.5711 40.3914 70.6501 39.2204C70.7291 38.0494 70.0681 36.9594 69.1921 36.7834Z" fill="white"/>
<path fill-rule="evenodd" clip-rule="evenodd" d="M64.8965 35.9478C64.0285 35.7958 63.3045 36.5078 63.2695 37.5308C63.2345 38.5528 63.8905 39.5518 64.7395 39.7678C65.5885 39.9838 66.3285 39.2778 66.3815 38.1918C66.4345 37.1038 65.7645 36.0988 64.8965 35.9478Z" fill="white"/>
<path fill-rule="evenodd" clip-rule="evenodd" d="M60.6326 35.2485C59.7696 35.1255 59.0586 35.8115 59.0396 36.7735C59.0206 37.7345 59.6916 38.6455 60.5416 38.8215C61.3906 38.9985 62.1086 38.3255 62.1406 37.3115C62.1736 36.2965 61.4956 35.3705 60.6326 35.2485Z" fill="white"/>
<path fill-rule="evenodd" clip-rule="evenodd" d="M81.6627 46.2664C80.7777 45.9474 79.9197 46.8204 79.7147 48.2334C79.5097 49.6444 79.9967 51.1304 80.8307 51.5324C81.6617 51.9344 82.5737 51.0354 82.8297 49.5394C83.0857 48.0434 82.5467 46.5854 81.6627 46.2664Z" fill="white"/>
<path fill-rule="evenodd" clip-rule="evenodd" d="M77.3495 44.696C76.4795 44.392 75.6675 45.202 75.5135 46.517C75.3605 47.832 75.8895 49.223 76.7165 49.611C77.5435 49.999 78.3925 49.167 78.5895 47.767C78.7875 46.367 78.2195 44.999 77.3495 44.696Z" fill="white"/>
<path fill-rule="evenodd" clip-rule="evenodd" d="M73.0958 43.2207C72.2368 42.9397 71.4628 43.6927 71.3528 44.9117C71.2428 46.1297 71.8098 47.4187 72.6328 47.7837C73.4528 48.1477 74.2548 47.3797 74.4018 46.0777C74.5498 44.7757 73.9548 43.5007 73.0958 43.2207Z" fill="white"/>
<path fill-rule="evenodd" clip-rule="evenodd" d="M68.8834 41.8707C68.0324 41.6177 67.2894 42.3247 67.2144 43.4527C67.1394 44.5807 67.7394 45.7617 68.5604 46.0937C69.3824 46.4257 70.1434 45.7137 70.2484 44.5077C70.3544 43.3007 69.7354 42.1237 68.8834 41.8707Z" fill="white"/>
<path fill-rule="evenodd" clip-rule="evenodd" d="M64.6963 40.6773C63.8473 40.4583 63.1273 41.1313 63.0803 42.1763C63.0343 43.2213 63.6623 44.2953 64.4873 44.5853C65.3113 44.8763 66.0423 44.2093 66.1133 43.0933C66.1843 41.9773 65.5443 40.8953 64.6963 40.6773Z" fill="white"/>
<path fill-rule="evenodd" clip-rule="evenodd" d="M76.5487 50.7905C75.7257 50.3995 74.9167 51.1745 74.7247 52.5415C74.5337 53.9085 74.9877 55.4225 75.7577 55.9005C76.1207 56.1235 76.4957 56.0675 76.8207 55.7885C76.8207 55.7875 76.8207 55.7875 76.8207 55.7865C76.9997 55.6335 77.1647 55.4105 77.2987 55.1335C77.2987 55.1325 77.2997 55.1325 77.2997 55.1315C77.4397 54.8465 77.5477 54.5015 77.6127 54.1155C77.8597 52.6615 77.3727 51.1825 76.5487 50.7905Z" fill="white"/>
<path fill-rule="evenodd" clip-rule="evenodd" d="M72.5094 48.8783C71.6894 48.5103 70.9224 49.2273 70.7844 50.4923C70.6464 51.7563 71.1554 53.1633 71.9294 53.6203C72.7024 54.0783 73.4914 53.3363 73.6764 51.9833C73.8604 50.6283 73.3294 49.2463 72.5094 48.8783Z" fill="white"/>
<path fill-rule="evenodd" clip-rule="evenodd" d="M68.4749 47.1051C67.6549 46.7701 66.9209 47.4401 66.8279 48.6051C66.7349 49.7691 67.2899 51.0571 68.0709 51.4791C68.8529 51.9031 69.6009 51.2231 69.7329 49.9721C69.8639 48.7191 69.2949 47.4411 68.4749 47.1051Z" fill="white"/>
<path fill-rule="evenodd" clip-rule="evenodd" d="M64.4313 45.5192C63.6083 45.2252 62.8973 45.8612 62.8383 46.9342C62.7803 48.0062 63.3763 49.1712 64.1693 49.5442C64.9623 49.9182 65.6803 49.2892 65.7683 48.1362C65.8563 46.9842 65.2543 45.8122 64.4313 45.5192Z" fill="white"/>
<path fill-rule="evenodd" clip-rule="evenodd" d="M86.0532 47.9016C85.1492 47.5726 84.2362 48.5136 83.9702 50.0216C83.7062 51.5286 84.1452 53.0976 84.9902 53.5046C85.8322 53.9126 86.8142 52.9436 87.1382 51.3586C87.4632 49.7716 86.9552 48.2316 86.0532 47.9016Z" fill="white"/>
<path fill-rule="evenodd" clip-rule="evenodd" d="M87.0702 41.1235C86.1202 40.8825 85.2242 41.8705 85.0242 43.3385C84.8272 44.8055 85.3672 46.2715 86.2722 46.5975C87.1762 46.9235 88.1462 45.9195 88.3882 44.3675C88.6322 42.8135 88.0192 41.3655 87.0702 41.1235Z" fill="white"/>
<path fill-rule="evenodd" clip-rule="evenodd" d="M87.7583 34.4673C86.7763 34.3193 85.9113 35.3623 85.7773 36.8033C85.6463 38.2433 86.2753 39.6103 87.2263 39.8483C88.1773 40.0843 89.1193 39.0323 89.2813 37.5013C89.4443 35.9703 88.7383 34.6153 87.7583 34.4673Z" fill="white"/>
<path fill-rule="evenodd" clip-rule="evenodd" d="M87.8523 33.2073C88.8333 33.3503 89.7363 32.2363 89.8173 30.7203C89.8983 29.2023 89.1133 27.9353 88.1183 27.8843C87.1213 27.8343 86.2973 28.9433 86.2293 30.3673C86.1643 31.7913 86.8703 33.0643 87.8523 33.2073Z" fill="white"/>
<path fill-rule="evenodd" clip-rule="evenodd" d="M91.8075 42.3661C90.8305 42.1181 89.8765 43.1791 89.6255 44.7461C89.3765 46.3111 89.8855 47.8591 90.8125 48.1891C91.7375 48.5201 92.7795 47.4451 93.0795 45.7981C93.3805 44.1491 92.7845 42.6141 91.8075 42.3661Z" fill="white"/>
<path fill-rule="evenodd" clip-rule="evenodd" d="M92.6662 35.2466C91.6542 35.0936 90.7402 36.2146 90.5722 37.7596C90.4072 39.3046 91.0242 40.7596 92.0022 41.0046C92.9812 41.2486 93.9862 40.1186 94.1862 38.4836C94.3872 36.8476 93.6782 35.3996 92.6662 35.2466Z" fill="white"/>
<path fill-rule="evenodd" clip-rule="evenodd" d="M96.6909 43.6354C95.6809 43.3834 94.6629 44.5224 94.3529 46.1824C94.0449 47.8414 94.5189 49.4614 95.4719 49.7914C96.4229 50.1204 97.5469 48.9764 97.9119 47.2414C98.2779 45.5024 97.6979 43.8874 96.6909 43.6354Z" fill="white"/>
<path fill-rule="evenodd" clip-rule="evenodd" d="M97.7425 36.0521C96.6925 35.8941 95.7275 37.1001 95.5205 38.7491C95.3155 40.3991 95.9185 41.9401 96.9295 42.1891C97.9385 42.4371 99.0145 41.2291 99.2575 39.4891C99.5025 37.7481 98.7895 36.2101 97.7425 36.0521Z" fill="white"/>
<path fill-rule="evenodd" clip-rule="evenodd" d="M27.1184 41.0654V55.7624H29.8144V51.8724H32.7944L33.4974 49.8394H29.8144V43.3194H35.7534L36.5334 41.0654H27.1184Z" fill="white"/>
<path fill-rule="evenodd" clip-rule="evenodd" d="M8.53 48.5009C8.089 48.1619 7.666 47.8999 7.26 47.7079C7.251 47.7029 7.239 47.6989 7.229 47.6949C6.831 47.5079 6.379 47.3349 5.871 47.1779C5.345 47.0129 4.851 46.8569 4.387 46.7009C3.924 46.5459 3.572 46.3489 3.336 46.1129C2.984 45.7619 2.806 45.3469 2.806 44.8789C2.806 44.2289 3.02 43.7479 3.438 43.4409C3.67 43.2709 3.977 43.1469 4.352 43.0709C4.352 43.0709 4.401 43.0619 4.494 43.0439C4.516 43.0399 4.543 43.0349 4.57 43.0349C4.632 43.0259 4.704 43.0169 4.784 43.0089C4.842 42.9999 4.895 42.9949 4.957 42.9949C4.989 42.9949 5.02 42.9909 5.051 42.9909C5.158 42.9819 5.269 42.9769 5.381 42.9769C5.755 42.9769 6.067 43.0039 6.312 43.0579C6.347 43.0619 6.387 43.0709 6.427 43.0799C7.103 43.2019 7.842 43.4839 8.479 44.0429L9.283 41.6949V41.6939C7.987 41.0929 6.583 40.7899 5.073 40.7899C3.563 40.7899 2.338 41.1779 1.403 41.9479C0.467 42.7229 0 43.7839 0 45.1329C0 46.4789 0.436 47.4759 1.305 48.1269C1.746 48.4519 2.187 48.7059 2.619 48.8889C3.055 49.0709 3.599 49.2539 4.254 49.4319C4.913 49.6059 5.443 49.7969 5.857 50.0069C6.041 50.0899 6.201 50.1839 6.341 50.2879C6.798 50.6259 7.029 51.0759 7.029 51.6409C7.029 52.8179 6.407 53.4999 5.175 53.6969C5.096 53.7089 5.023 53.7269 4.94 53.7349C4.94 53.7349 4.922 53.7349 4.891 53.7399C4.541 53.7799 2.348 53.9549 0.898 52.7049L0.066 55.1339C1.363 55.7349 2.828 56.0379 4.454 56.0379C6.08 56.0379 7.394 55.6419 8.387 54.8439C9.381 54.0509 9.88 52.9599 9.88 51.5749C9.88 50.1889 9.43 49.1649 8.53 48.5009Z" fill="white"/>
<path fill-rule="evenodd" clip-rule="evenodd" d="M19.0959 41.0655H16.0289L11.7769 53.4895L10.9989 55.7625H13.5479L14.2559 53.8175L14.9189 51.8725L15.4499 49.8395L17.5049 43.5405H17.5709L19.5599 49.8395H17.2309L16.7009 51.8725H20.0909L20.5969 53.4415L21.3469 55.7625H24.3929L23.6049 53.8175L19.0959 41.0655Z" fill="white"/>
<path fill-rule="evenodd" clip-rule="evenodd" d="M48.8959 53.8177L44.3869 41.0657H41.3209L37.0679 53.4887L36.2899 55.7627H38.8389L39.5469 53.8177L40.2099 51.8727L40.7409 49.8397L42.7959 43.5407H42.8619L44.8509 49.8397H42.5229L41.9919 51.8727H45.3819L45.8889 53.4417L46.6379 55.7627H49.6839L48.8959 53.8177Z" fill="white"/>
<path fill-rule="evenodd" clip-rule="evenodd" d="M24.7805 25.0816C25.1975 25.0816 25.5595 24.9506 25.8685 24.6886C26.1775 24.4266 26.3325 24.0396 26.3325 23.5286C26.3325 23.0736 26.1835 22.7046 25.8875 22.4216C25.5915 22.1386 25.2215 21.9976 24.7805 21.9976C24.3385 21.9976 23.9695 22.1386 23.6735 22.4216C23.3765 22.7046 23.2285 23.0736 23.2285 23.5286C23.2285 24.0396 23.3825 24.4266 23.6925 24.6886C24.0015 24.9506 24.3645 25.0816 24.7805 25.0816Z" fill="white"/>
<path fill-rule="evenodd" clip-rule="evenodd" d="M47.0357 34.3866H38.8777V29.9586H44.9147C45.2557 29.9586 45.5697 30.0286 45.8527 30.1676C46.1367 30.3076 46.3607 30.4826 46.5237 30.6956C46.7027 30.9126 46.8307 31.1606 46.9117 31.4436C46.9967 31.7266 47.0357 32.0606 47.0357 32.4366V34.3866ZM49.4397 30.3856C49.2767 29.7226 48.9897 29.1756 48.5867 28.7486C48.1097 28.2446 47.5477 27.8806 46.9037 27.6596C46.2607 27.4386 45.5077 27.3296 44.6507 27.3296H38.8777V26.3836H36.2297V34.3856H34.6867V34.3866H30.4487V36.7256H36.2297H36.4957H49.6837V32.5526C49.6837 31.7696 49.6027 31.0486 49.4397 30.3856Z" fill="white"/>
<path fill-rule="evenodd" clip-rule="evenodd" d="M26.067 34.3866H23.326C22.884 34.0846 22.531 33.7046 22.275 33.2506C22.015 32.7966 21.887 32.2816 21.887 31.6996C21.887 31.2736 21.973 30.8896 22.151 30.5556C22.329 30.2226 22.558 29.9396 22.841 29.7146C23.124 29.4856 23.454 29.3146 23.826 29.2026C24.198 29.0906 24.574 29.0316 24.95 29.0316H26.067V34.3866ZM23.004 26.7406C22.221 26.9806 21.55 27.3296 20.996 27.7916C20.441 28.2526 20.011 28.8106 19.7 29.4666C19.39 30.1216 19.235 30.8656 19.235 31.6996C19.235 32.2426 19.32 32.7346 19.483 33.1766C19.646 33.6186 19.867 34.0226 20.146 34.3866H2.648V21.9976L0 24.3406V36.7256H28.719V26.3836H25.594C24.648 26.3836 23.783 26.5036 23.004 26.7406Z" fill="white"/>
</svg>
